<svg width="158" height="53" fill="none" xmlns="http://www.w3.org/2000/svg"><g clip-path="url(#a)"><path d="M-2.535-58.02-36.353 89.64l11.59-17.736C-6.75 44.341 26.324 30.648 58.548 37.413l65.335 13.715c33.18 6.966 65.992-13.32 74.59-46.116l3.373-12.866c9.008-34.36-11.872-69.437-46.37-77.9l-80.86-19.837c-34.488-8.461-69.223 12.957-77.15 47.572Z" fill="url(#b)"/><path d="M-6.748-53.531-32.909 89.968l9.734-16.168c17.106-28.412 49.983-43.305 82.621-37.428l63.68 11.466c33.742 6.076 66.227-15.686 73.447-49.202l2.166-10.056c7.403-34.363-14.473-68.215-48.843-75.583l-80.74-17.31C34.056-111.837-.31-88.844-6.749-53.531Z" fill="url(#c)"/><path d="m-16.632-54.758 3.273 123.024L1.483 44.755A79.91 79.91 0 0 1 69.056 7.5H95.5c26.123.297 49.355-16.557 57.182-41.482l.849-2.706c12.51-39.842-16.47-80.618-58.21-81.904l-46.415-1.429c-36.544-1.126-66.51 28.715-65.538 65.263Z" fill="url(#d)"/><path d="m-30.491-40.948 22.321 121.5 1.98-10.884c5.934-32.628 31.405-58.2 64.01-64.264l46.733-8.69c32.625-6.067 54.57-36.902 49.616-69.715-5.079-33.642-36.485-56.785-70.122-51.672l-61.54 9.353c-35.488 5.393-59.484 39.068-52.998 74.372Z" fill="url(#e)"/></g><defs><linearGradient id="b" x1="75.244" y1="-44.883" x2="-18.564" y2="86.29" gradientUnits="userSpaceOnUse"><stop stop-color="#FFE1E5"/><stop offset="1" stop-color="#FF9696"/></linearGradient><linearGradient id="c" x1="57.46" y1="-53.412" x2="-30.248" y2="77.165" gradientUnits="userSpaceOnUse"><stop offset=".142" stop-color="#FD3A51"/><stop offset="1" stop-color="#FB9696"/></linearGradient><linearGradient id="d" x1="43.137" y1="-72.685" x2="-11.147" y2="57.352" gradientUnits="userSpaceOnUse"><stop stop-color="#FF7E8E"/><stop offset="1" stop-color="#FF9696"/></linearGradient><linearGradient id="e" x1="22" y1="-68" x2="-10" y2="69" gradientUnits="userSpaceOnUse"><stop offset=".142" stop-color="#FF849E"/><stop offset="1" stop-color="#FF4945"/></linearGradient><clipPath id="a"><path d="M0 8a8 8 0 0 1 8-8h142a8 8 0 0 1 8 8v45H0V8Z" fill="#fff"/></clipPath></defs></svg>